<svg version="1.1" xmlns="http://www.w3.org/2000/svg" xmlns:xlink="http://www.w3.org/1999/xlink" width="180.86042" height="103.17756" viewBox="0,0,180.86042,103.17756"><defs><linearGradient x1="262.78698" y1="200.02145" x2="262.78698" y2="228.81591" gradientUnits="userSpaceOnUse" id="color-1"><stop offset="0" stop-color="#7233ff"/><stop offset="1" stop-color="#793eff"/></linearGradient><linearGradient x1="233.89543" y1="172.88821" x2="233.89543" y2="229.92338" gradientUnits="userSpaceOnUse" id="color-2"><stop offset="0" stop-color="#6a27ff"/><stop offset="1" stop-color="#793eff"/></linearGradient><linearGradient x1="294.84836" y1="196.00693" x2="294.84836" y2="229.78504" gradientUnits="userSpaceOnUse" id="color-3"><stop offset="0" stop-color="#7233ff"/><stop offset="1" stop-color="#793eff"/></linearGradient><linearGradient x1="328.90334" y1="174.41109" x2="328.90334" y2="230.33877" gradientUnits="userSpaceOnUse" id="color-4"><stop offset="0" stop-color="#7233ff"/><stop offset="1" stop-color="#793eff"/></linearGradient><linearGradient x1="189.65861" y1="130.38037" x2="207.2445" y2="179.12027" gradientUnits="userSpaceOnUse" id="color-5"><stop offset="0" stop-color="#7233ff"/><stop offset="1" stop-color="#9364ff"/></linearGradient><linearGradient x1="196.50484" y1="130.08798" x2="189.93933" y2="152.57161" gradientUnits="userSpaceOnUse" id="color-6"><stop offset="0" stop-color="#7233ff"/><stop offset="1" stop-color="#793eff"/></linearGradient><linearGradient x1="158.26361" y1="159.90946" x2="203.64401" y2="184.91868" gradientUnits="userSpaceOnUse" id="color-7"><stop offset="0" stop-color="#7233ff"/><stop offset="1" stop-color="#9364ff"/></linearGradient><linearGradient x1="163.21389" y1="155.17121" x2="173.12099" y2="176.39547" gradientUnits="userSpaceOnUse" id="color-8"><stop offset="0" stop-color="#7233ff"/><stop offset="1" stop-color="#793eff"/></linearGradient><linearGradient x1="151.11543" y1="202.43702" x2="201.74722" y2="191.42506" gradientUnits="userSpaceOnUse" id="color-9"><stop offset="0" stop-color="#7233ff"/><stop offset="1" stop-color="#9364ff"/></linearGradient><linearGradient x1="151.72747" y1="195.61194" x2="173.15026" y2="205.08206" gradientUnits="userSpaceOnUse" id="color-10"><stop offset="0" stop-color="#7233ff"/><stop offset="1" stop-color="#793eff"/></linearGradient></defs><g transform="translate(-150.81979,-129.66122)"><g data-paper-data="{&quot;isPaintingLayer&quot;:true}" fill-rule="nonzero" stroke-linejoin="miter" stroke-miterlimit="10" stroke-dasharray="" stroke-dashoffset="0" style="mix-blend-mode: normal"><path d="M262.51011,229.92338v-29.90194" fill="none" stroke="url(#color-1)" stroke-width="5" stroke-linecap="round"/><path d="M262.31593,201.4058c0,15.74982 -12.72428,28.51758 -28.4205,28.51758c-15.6962,0 -28.4205,-12.76776 -28.4205,-28.51758c0,-15.74982 12.72429,-28.51759 28.4205,-28.51759c15.69621,0 28.4205,12.76776 28.4205,28.51759z" fill="none" stroke="url(#color-2)" stroke-width="5" stroke-linecap="butt"/><path d="M274.50077,229.78504l-0.14078,-33.77811c0,0 -0.12971,-10.43261 3.88027,-16.05552c4.27445,-5.99376 12.79993,-7.20154 16.05435,-7.20154c3.23422,0 12.21847,0.78273 16.26331,5.93014c4.99242,6.35327 4.77879,17.32692 4.77879,17.32692" fill="none" stroke="url(#color-3)" stroke-width="5" stroke-linecap="round"/><path d="M328.62647,174.41109l0.55374,55.9277" fill="none" stroke="url(#color-4)" stroke-width="5" stroke-linecap="round"/><path d="M207.88411,178.88949c0,0 -15.72127,-16.013 -23.25281,-27.84952c-4.16261,-6.54194 -2.72476,-10.61598 -2.07941,-12.826c1.81302,-6.20869 8.05996,-9.8468 13.95295,-8.12598c2.05773,0.60089 8.06876,2.93842 9.81105,10.66492c3.24733,14.40093 1.56822,38.13659 1.56822,38.13659z" fill="url(#color-5)" stroke="url(#color-6)" stroke-width="0" stroke-linecap="butt"/><path d="M203.97221,184.32315c0,0 -22.37947,-1.65362 -35.84983,-5.57496c-7.44493,-2.16729 -9.05366,-6.17694 -10.02747,-8.26317c-2.73577,-5.86091 -0.44392,-12.71713 5.11898,-15.31379c1.94246,-0.90671 8.00109,-3.11798 14.40958,1.53666c11.94436,8.67549 26.34874,27.61527 26.34874,27.61527z" fill="url(#color-7)" stroke="url(#color-8)" stroke-width="0" stroke-linecap="butt"/><path d="M201.60271,190.76062c0,0 -17.94447,13.47482 -30.67,19.38146c-7.03328,3.26454 -10.8824,1.30254 -12.98815,0.37168c-5.91574,-2.6151 -8.69923,-9.28687 -6.21709,-14.9018c0.86672,-1.96064 3.97574,-7.61136 11.86442,-8.32063c14.7032,-1.32195 38.01083,3.46929 38.01083,3.46929z" fill="url(#color-9)" stroke="url(#color-10)" stroke-width="0" stroke-linecap="butt"/></g></g></svg>
