<svg version="1.1" xmlns="http://www.w3.org/2000/svg" xmlns:xlink="http://www.w3.org/1999/xlink" width="241.59484" height="137.67756" viewBox="0,0,241.59484,137.67756"><defs><linearGradient x1="234.51869" y1="203.14814" x2="234.51869" y2="241.66683" gradientUnits="userSpaceOnUse" id="color-1"><stop offset="0" stop-color="#7233ff"/><stop offset="1" stop-color="#793eff"/></linearGradient><linearGradient x1="195.87013" y1="166.85169" x2="195.87013" y2="243.14831" gradientUnits="userSpaceOnUse" id="color-2"><stop offset="0" stop-color="#6a27ff"/><stop offset="1" stop-color="#793eff"/></linearGradient><linearGradient x1="277.40757" y1="197.77787" x2="277.40757" y2="242.96325" gradientUnits="userSpaceOnUse" id="color-3"><stop offset="0" stop-color="#7233ff"/><stop offset="1" stop-color="#793eff"/></linearGradient><linearGradient x1="322.96332" y1="168.88886" x2="322.96332" y2="243.70399" gradientUnits="userSpaceOnUse" id="color-4"><stop offset="0" stop-color="#7233ff"/><stop offset="1" stop-color="#793eff"/></linearGradient><linearGradient x1="136.694" y1="109.98845" x2="160.21885" y2="175.18839" gradientUnits="userSpaceOnUse" id="color-5"><stop offset="0" stop-color="#7233ff"/><stop offset="1" stop-color="#9364ff"/></linearGradient><linearGradient x1="145.85228" y1="109.59732" x2="137.06953" y2="139.67393" gradientUnits="userSpaceOnUse" id="color-6"><stop offset="0" stop-color="#7233ff"/><stop offset="1" stop-color="#793eff"/></linearGradient><linearGradient x1="94.69654" y1="149.48987" x2="155.40244" y2="182.94499" gradientUnits="userSpaceOnUse" id="color-7"><stop offset="0" stop-color="#7233ff"/><stop offset="1" stop-color="#9364ff"/></linearGradient><linearGradient x1="101.31859" y1="143.15146" x2="114.57143" y2="171.54339" gradientUnits="userSpaceOnUse" id="color-8"><stop offset="0" stop-color="#7233ff"/><stop offset="1" stop-color="#793eff"/></linearGradient><linearGradient x1="85.13434" y1="206.37948" x2="152.86508" y2="191.64865" gradientUnits="userSpaceOnUse" id="color-9"><stop offset="0" stop-color="#7233ff"/><stop offset="1" stop-color="#9364ff"/></linearGradient><linearGradient x1="85.95307" y1="197.2495" x2="114.61059" y2="209.91779" gradientUnits="userSpaceOnUse" id="color-10"><stop offset="0" stop-color="#7233ff"/><stop offset="1" stop-color="#793eff"/></linearGradient><linearGradient x1="196" y1="173.41072" x2="196" y2="236.58929" gradientUnits="userSpaceOnUse" id="color-11"><stop offset="0" stop-color="#7233ff"/><stop offset="1" stop-color="#9364ff"/></linearGradient></defs><g transform="translate(-84.73886,-109.02644)"><g data-paper-data="{&quot;isPaintingLayer&quot;:true}" fill-rule="nonzero" stroke-linejoin="miter" stroke-miterlimit="10" stroke-dasharray="" stroke-dashoffset="0" style="mix-blend-mode: normal"><path d="M234.14832,243.14831v-40.00017" fill="none" stroke="url(#color-1)" stroke-width="6" stroke-linecap="round"/><path d="M233.88857,205c0,21.06873 -17.02143,38.14831 -38.01844,38.14831c-20.997,0 -38.01844,-17.07958 -38.01844,-38.14831c0,-21.06873 17.02143,-38.14831 38.01844,-38.14831c20.99701,0 38.01844,17.07958 38.01844,38.14831z" fill="none" stroke="url(#color-2)" stroke-width="6" stroke-linecap="butt"/><path d="M250.18837,242.96325l-0.18832,-45.18538c0,0 -0.17351,-13.95582 5.19069,-21.47766c5.71798,-8.01793 17.12262,-9.63358 21.4761,-9.63358c4.32646,0 16.34479,1.04707 21.75563,7.93282c6.67842,8.49885 6.39264,23.17842 6.39264,23.17842" fill="none" stroke="url(#color-3)" stroke-width="6" stroke-linecap="round"/><path d="M322.59295,168.88886l0.74075,74.81514" fill="none" stroke="url(#color-4)" stroke-width="6" stroke-linecap="round"/><path d="M161.07447,174.87968c0,0 -21.03054,-21.42078 -31.10557,-37.25464c-5.56837,-8.75123 -3.64494,-14.20112 -2.78164,-17.15749c2.42529,-8.30543 10.7819,-13.17219 18.66502,-10.87022c2.75264,0.80381 10.79368,3.93076 13.12436,14.26658c4.344,19.26429 2.09783,51.01577 2.09783,51.01577z" fill="url(#color-5)" stroke="url(#color-6)" stroke-width="0" stroke-linecap="butt"/><path d="M155.84147,182.14834c0,0 -29.93728,-2.21206 -47.95673,-7.45769c-9.95918,-2.89921 -12.11119,-8.26297 -13.41387,-11.05374c-3.65967,-7.84021 -0.59384,-17.01185 6.84772,-20.48544c2.59846,-1.21292 10.70315,-4.17096 19.27586,2.05561c15.97811,11.6053 35.24703,36.94127 35.24703,36.94127z" fill="url(#color-7)" stroke="url(#color-8)" stroke-width="0" stroke-linecap="butt"/><path d="M152.67177,190.75982c0,0 -24.00453,18.02544 -41.02762,25.92682c-9.4085,4.36702 -14.55752,1.74241 -17.3744,0.49719c-7.91356,-3.49825 -11.63706,-12.42315 -8.31668,-19.93432c1.15942,-2.62277 5.31839,-10.18181 15.87117,-11.1306c19.66865,-1.76839 50.84753,4.64092 50.84753,4.64092z" fill="url(#color-9)" stroke="url(#color-10)" stroke-width="0" stroke-linecap="butt"/><path d="M226.5,205c0,17.44628 -13.65532,31.58928 -30.5,31.58928c-16.84468,0 -30.5,-14.143 -30.5,-31.58928c0,-17.44628 13.65532,-31.58928 30.5,-31.58928c16.84468,0 30.5,14.143 30.5,31.58928z" fill="url(#color-11)" stroke="none" stroke-width="0" stroke-linecap="butt"/></g></g></svg>
